<?xml version="1.0" standalone="no"?>
<!DOCTYPE svg PUBLIC "-//W3C//DTD SVG 20010904//EN"
 "http://www.w3.org/TR/2001/REC-SVG-20010904/DTD/svg10.dtd">
<svg version="1.0" xmlns="http://www.w3.org/2000/svg"
 width="512.000000pt" height="512.000000pt" viewBox="0 0 512.000000 512.000000"
 preserveAspectRatio="xMidYMid meet">
<metadata>
Created by potrace 1.14, written by Peter Selinger 2001-2017
</metadata>
<g transform="translate(0.000000,512.000000) scale(0.100000,-0.100000)"
fill="#000000" stroke="none">
<path d="M2420 4525 c-25 -6 -52 -14 -60 -17 -8 -4 -67 -25 -130 -48 -129 -47
-198 -73 -690 -260 -524 -200 -724 -275 -845 -313 -60 -20 -176 -56 -256 -82
-125 -40 -153 -52 -195 -89 -73 -64 -99 -122 -98 -221 0 -62 5 -90 23 -127 38
-78 140 -158 202 -158 11 0 19 -5 19 -11 0 -5 4 -8 9 -4 20 11 126 13 141 2
13 -10 13 -10 2 4 -11 14 -9 18 10 22 13 4 26 7 30 7 4 0 25 8 45 17 108 45
162 60 174 49 9 -8 10 -8 5 1 -4 7 2 16 12 22 16 8 20 2 37 -57 11 -37 20 -69
21 -72 0 -3 4 -12 7 -20 4 -8 14 -37 22 -65 29 -91 126 -409 152 -495 14 -47
29 -98 34 -113 l8 -28 -179 -88 c-229 -114 -245 -123 -278 -179 -34 -59 -38
-156 -8 -212 22 -40 68 -86 97 -95 10 -4 17 -9 15 -13 -2 -4 6 -7 17 -8 12 -1
36 -2 52 -3 35 -3 80 6 107 20 10 5 24 7 30 3 7 -4 8 -3 4 4 -4 7 -2 12 3 12
6 0 46 16 88 36 123 56 173 77 178 73 8 -8 136 -522 161 -644 5 -26 7 -37 39
-175 14 -63 37 -170 51 -238 28 -144 40 -176 83 -224 17 -19 28 -38 26 -42 -3
-3 -2 -4 1 -1 4 2 26 -7 49 -20 23 -14 52 -25 64 -25 12 0 20 -3 17 -8 -2 -4
30 -4 72 1 42 4 87 9 99 10 11 1 19 5 17 8 -5 9 26 20 37 13 5 -3 9 2 9 10 0
9 3 16 8 16 11 0 59 47 64 62 4 10 9 10 23 -2 17 -14 17 -14 4 8 -12 20 -12
24 1 32 8 5 11 10 7 10 -4 0 -4 8 2 18 5 9 11 31 12 47 2 17 8 33 14 37 6 5 5
8 -3 8 -10 0 -10 5 -1 21 8 15 8 19 0 15 -7 -5 -12 2 -12 16 -3 47 -6 64 -18
86 -6 12 -9 22 -5 22 3 0 1 6 -5 14 -7 8 -13 30 -14 49 -1 19 -6 32 -11 29 -5
-3 -7 5 -4 16 4 12 2 22 -4 22 -6 0 -8 11 -6 25 3 13 2 23 -2 20 -10 -6 -33
92 -24 106 4 7 3 9 -4 5 -9 -5 -21 25 -27 74 -1 8 -5 22 -8 30 -3 8 -14 47
-25 87 -14 53 -16 75 -8 84 8 9 8 10 0 6 -11 -6 -32 48 -39 103 -2 16 -6 33
-9 38 -3 5 -7 19 -10 33 -3 13 -19 78 -35 145 -17 66 -33 132 -35 145 -3 13
-5 24 -6 24 -2 0 -4 13 -15 76 -6 35 -5 36 44 58 27 11 52 21 55 21 7 0 114
46 149 65 16 8 34 15 40 15 7 0 25 7 41 15 16 9 36 13 43 10 8 -2 12 -1 8 4
-5 8 64 38 74 32 2 -2 7 2 10 8 4 6 18 12 31 13 14 2 31 9 38 16 7 6 19 12 26
12 7 0 27 7 44 15 17 9 40 18 51 20 10 2 32 10 49 19 22 12 32 12 41 3 10 -9
11 -8 6 6 -4 9 -3 17 3 17 16 0 79 68 94 100 7 17 16 30 20 30 5 0 7 3 7 8 -5
28 2 52 14 46 9 -5 9 -4 0 6 -7 8 -8 22 -3 40 5 16 6 31 3 34 -3 3 -7 16 -8
28 -6 46 -45 118 -85 157 -89 86 -222 103 -337 44 -32 -16 -114 -61 -183 -100
-69 -38 -172 -93 -230 -122 -58 -29 -118 -60 -134 -68 -29 -16 -29 -16 -24 10
3 15 2 24 -3 21 -4 -2 -7 4 -7 13 0 10 -2 32 -6 48 -4 17 -11 54 -16 83 -5 29
-12 57 -15 62 -3 6 0 10 7 10 10 0 10 2 0 8 -7 5 -13 27 -15 50 -1 23 -6 42
-11 42 -5 0 -2 8 5 17 8 9 9 14 3 10 -7 -4 -14 2 -17 13 -3 13 -1 18 6 13 7
-4 6 1 -2 10 -7 9 -11 26 -8 37 3 11 2 20 -2 20 -4 0 -13 33 -20 74 -13 79
-15 91 -30 171 -5 27 -8 51 -7 53 5 4 49 14 69 15 9 1 17 5 17 10 0 5 11 7 25
5 15 -3 22 -1 18 5 -4 6 0 8 10 4 9 -3 17 -2 19 2 2 4 48 20 103 35 55 15 137
39 183 53 45 14 89 22 98 19 8 -3 12 -2 9 4 -3 6 2 11 12 12 28 2 36 4 68 17
17 7 41 15 55 17 14 3 36 9 50 14 14 5 72 23 130 40 58 17 120 36 138 42 18 5
39 11 45 12 20 5 71 25 99 40 20 11 28 11 32 3 2 -7 5 -5 5 4 1 9 12 24 26 33
29 19 32 20 32 4 0 -20 14 -160 18 -188 5 -30 12 -108 21 -215 3 -44 8 -93 9
-110 1 -16 6 -73 10 -125 4 -52 10 -111 13 -130 3 -19 6 -512 6 -1095 l1
-1060 22 -45 c12 -25 33 -56 47 -69 14 -13 23 -28 19 -34 -3 -6 -1 -7 5 -3 6
3 16 1 24 -6 7 -7 20 -15 28 -17 8 -2 35 -10 60 -16 30 -9 51 -9 64 -3 14 8
17 7 10 -4 -6 -11 -5 -11 9 1 14 11 17 11 17 0 0 -11 2 -11 8 -2 12 20 519
164 552 158 11 -2 18 0 15 6 -4 5 6 10 22 11 34 1 43 3 63 11 8 3 31 8 51 10
20 3 41 7 45 10 5 3 25 8 44 11 56 9 203 35 230 41 14 3 39 7 55 10 17 2 57 9
89 15 32 6 67 9 77 7 11 -3 17 -1 13 4 -3 5 5 9 18 10 13 0 32 2 43 4 11 3 38
7 60 10 22 3 57 9 77 14 20 5 39 7 42 4 2 -3 15 3 28 11 14 9 28 13 31 9 4 -3
7 -1 7 5 0 6 16 16 35 23 19 7 33 15 31 17 -2 2 11 19 30 38 19 18 34 35 33
36 0 2 5 16 11 32 10 28 11 29 33 10 l22 -19 -18 21 c-15 19 -17 30 -9 71 5
28 7 61 5 74 -2 13 -5 36 -7 50 -11 75 -81 161 -166 205 -47 25 -66 29 -135
29 -76 0 -92 -5 -300 -82 -406 -151 -734 -263 -812 -277 -16 -3 -45 -10 -66
-16 -22 -6 -41 -10 -43 -8 -2 3 -6 32 -8 66 -3 46 -1 60 7 55 9 -5 9 -3 1 8
-6 8 -11 43 -12 79 -1 36 -1 65 -2 65 -1 0 -2 28 -3 62 -2 40 1 59 8 55 5 -3
5 1 -2 9 -6 8 -11 32 -10 54 1 22 -2 46 -7 53 -4 7 -2 12 6 12 8 0 9 3 3 8
-13 8 -13 22 -1 41 6 10 5 12 -2 7 -9 -5 -12 17 -13 81 -2 103 -4 157 -14 313
-3 63 -8 179 -10 257 -1 78 -6 146 -10 152 -3 6 -1 11 5 11 7 0 8 6 2 18 -10
21 -9 313 2 330 4 7 2 12 -6 12 -8 0 -9 3 -3 8 6 4 11 52 11 107 1 55 4 145 8
200 3 55 7 143 10 195 2 52 6 131 9 175 19 298 23 356 27 365 3 8 -1 109 -6
138 -6 34 -39 101 -62 127 -20 23 -66 55 -102 72 -119 55 -280 30 -366 -56
l-32 -31 -48 40 c-86 71 -203 100 -304 75z"/>
<path d="M3359 4113 c-13 -16 -12 -17 4 -4 16 13 21 21 13 21 -2 0 -10 -8 -17
-17z"/>
<path d="M2473 2505 c0 -8 4 -12 9 -9 5 3 6 10 3 15 -9 13 -12 11 -12 -6z"/>
<path d="M2209 2403 c-13 -16 -12 -17 4 -4 9 7 17 15 17 17 0 8 -8 3 -21 -13z"/>
</g>
</svg>
