<?xml version="1.0" encoding="UTF-8" standalone="no"?>
<!DOCTYPE svg PUBLIC "-//W3C//DTD SVG 1.1//EN" "http://www.w3.org/Graphics/SVG/1.1/DTD/svg11.dtd">
<svg width="100%" height="100%" viewBox="0 0 22 23" version="1.1" xmlns="http://www.w3.org/2000/svg" xmlns:xlink="http://www.w3.org/1999/xlink" xml:space="preserve" xmlns:serif="http://www.serif.com/" style="fill-rule:evenodd;clip-rule:evenodd;stroke-linejoin:round;stroke-miterlimit:2;">
    <g>
        <rect x="0" y="0" width="21.686" height="22.119" style="fill-opacity:0;"/>
        <path d="M4.158,20.547C4.36,20.703 4.588,20.757 4.842,20.708C5.096,20.659 5.372,20.527 5.672,20.313L10.838,16.514L16.014,20.313C16.313,20.527 16.59,20.659 16.844,20.708C17.098,20.757 17.325,20.703 17.527,20.547C17.729,20.397 17.851,20.195 17.894,19.941C17.936,19.687 17.895,19.385 17.772,19.033L15.73,12.959L20.945,9.209C21.251,8.994 21.463,8.773 21.58,8.545C21.697,8.317 21.717,8.083 21.639,7.842C21.561,7.607 21.408,7.432 21.18,7.314C20.952,7.197 20.649,7.142 20.272,7.148L13.875,7.188L11.932,1.084C11.814,0.726 11.666,0.456 11.487,0.273C11.308,0.091 11.092,0 10.838,0C10.59,0 10.377,0.091 10.198,0.273C10.019,0.456 9.871,0.726 9.754,1.084L7.811,7.188L1.414,7.148C1.036,7.142 0.734,7.197 0.506,7.314C0.278,7.432 0.125,7.607 0.047,7.842C-0.031,8.083 -0.012,8.317 0.105,8.545C0.223,8.773 0.434,8.994 0.74,9.209L5.955,12.959L3.914,19.033C3.79,19.385 3.75,19.687 3.792,19.941C3.834,20.195 3.956,20.397 4.158,20.547Z" style="fill-opacity:0.25;fill-rule:nonzero;"/>
    </g>
</svg>
