<svg width="100%" height="100%" viewBox="0 0 512 512" version="1.1" xmlns="http://www.w3.org/2000/svg" xmlns:xlink="http://www.w3.org/1999/xlink" xml:space="preserve" xmlns:serif="http://www.serif.com/" style="fill-rule:evenodd;clip-rule:evenodd;stroke-linejoin:round;stroke-miterlimit:2;">
    <g transform="matrix(1.76395,0,0,1.76395,-195.572,12.9902)">
        <path fill="currentColor" d="M327.051,0c-5.934,0 -8.508,3.739 -10.639,7.568c-0,0 -85.609,151.817 -88.426,156.803c0.144,0.271 56.464,103.589 56.464,103.589c1.969,3.522 5.012,7.568 11.099,7.568l39.693,0c2.393,0 4.263,-0.903 5.274,-2.537c1.057,-1.698 1.03,-3.938 -0.081,-6.142l-56.021,-102.352c-0.055,-0.081 -0.055,-0.181 -0,-0.262l87.983,-155.565c1.102,-2.195 1.129,-4.434 0.081,-6.132c-1.011,-1.635 -2.89,-2.538 -5.283,-2.538l-40.144,-0Zm-166.943,54.414c-2.393,-0 -4.407,0.84 -5.419,2.484c-1.047,1.697 -0.885,3.883 0.226,6.096l26.869,46.511c0.045,0.09 0.045,0.145 -0,0.226l-42.222,74.509c-1.102,2.194 -1.048,4.398 -0,6.096c1.011,1.634 2.8,2.709 5.193,2.709l39.738,0c5.943,0 8.806,-4.01 10.838,-7.677c-0,0 41.291,-73.027 42.898,-75.863c-0.162,-0.262 -27.319,-47.64 -27.319,-47.64c-1.978,-3.522 -4.968,-7.451 -11.064,-7.451l-39.738,-0Z" />
    </g>
</svg>
